<svg xmlns="http://www.w3.org/2000/svg" width="1920" height="1400" viewBox="0 0 1920 1400" style="background:#37075d">
    <g fill="none" fill-rule="evenodd" opacity=".8">
        <g>
            <g opacity=".5">
                <g fill-rule="nonzero" transform="matrix(-1 0 0 1 1920 -233) matrix(-1 0 0 1 1438 0) translate(116.85)">
                    <path fill="#ED2B91" d="M392.868 312.15c1.007.233 2.055.233 3.062 0 1.043-.179 2.077-.437 3.128-.655 1.061-.246 2.143-.389 3.232-.428 1.135-.065 2.262.217 3.232.807.932.65 1.676 1.533 2.158 2.561.462.982.87 1.988 1.22 3.014.322.977.765 1.91 1.317 2.78.274.393.61.739.994 1.025l1.285.954c7.031 5.161 12.965 11.67 17.455 19.147 2.246 3.774 4.083 7.777 5.479 11.94.703 2.085 1.293 4.21 1.786 6.359.493 2.149.808 4.338 1.058 6.528.99 8.817.061 17.743-2.723 26.168-2.794 8.347-7.272 16.032-13.156 22.58-5.82 6.483-12.856 11.759-20.711 15.528-15.819 7.596-33.953 8.823-50.65 3.426-1.027-.364-2.07-.687-3.088-1.09-1.018-.405-1.996-.728-3.11-1.31-1.163-.58-2.183-1.407-2.99-2.423-.092-.117-.173-.242-.243-.372l-.17-.38c-.069-.195-.126-.395-.17-.598-.07-.317-.121-.638-.153-.961-.073-.598-.105-1.147-.13-1.697-.064-1.074-.105-2.132-.242-3.03-.032-.195-.075-.39-.13-.58 0-.146-.112-.268-.048-.154.032.055.073.104.122.145.07.065.149.119.234.162.07.034.143.061.218.08 0 0-.121 0-.275.057-.888.266-1.749.618-2.57 1.05l-1.414.703c-.523.299-1.063.568-1.616.808-.379.138-.772.236-1.171.29-.54.088-1.092.055-1.617-.096-.196-.058-.385-.137-.565-.234-.152-.086-.296-.187-.429-.3l-.323-.25-.638-.517c-.865-.687-1.721-1.39-2.53-2.14l-1.196-1.108c-.404-.371-.808-.767-1.18-1.155l-1.171-1.171c-.38-.396-.752-.808-1.123-1.22-2.976-3.271-5.602-6.842-7.839-10.657-4.513-7.666-7.416-16.17-8.533-24.996-.57-4.407-.674-8.862-.307-13.29 1.056-13.375 6.266-26.086 14.9-36.356 5.697-6.777 12.786-12.249 20.785-16.044 7.887-3.738 16.437-5.877 25.156-6.294 8.6-.45 17.21.7 25.39 3.393zm-.146.452c-4.056-1.304-8.233-2.194-12.468-2.658-4.225-.43-8.483-.411-12.704.056-2.109.218-4.185.598-6.254 1.01-2.069.412-4.097 1.002-6.093 1.68-3.982 1.307-7.82 3.012-11.459 5.09-14.498 8.31-25.201 21.924-29.85 37.972-4.619 15.995-2.664 33.172 5.43 47.722 2.03 3.596 4.415 6.979 7.119 10.1l1.018 1.17 1.067 1.116c.364.371.703.759 1.075 1.122l1.123 1.067c.735.727 1.527 1.398 2.311 2.076l.59.51.29.25s.195.145-.112-.049c-.059-.04-.125-.068-.194-.08-.138 0-.09 0 0 0 .13-.011.257-.038.38-.081.266-.081.808-.332 1.268-.542l1.487-.678c1.094-.518 2.24-.92 3.418-1.196.433-.09.877-.115 1.318-.073.343.029.677.122.985.275.206.102.397.232.566.388.145.13.275.277.388.436.268.402.457.852.558 1.325.077.327.131.659.161.994.13 1.228.105 2.31.121 3.369v1.502c0 .235.04.46.065.622v.178c0-.04-.073-.105 0 0 .513.685 1.166 1.252 1.915 1.664.76.453 1.81.865 2.74 1.31.929.444 1.93.807 2.9 1.195 3.927 1.467 7.986 2.55 12.122 3.232 1.034.193 2.085.298 3.127.444 1.043.145 2.093.21 3.144.275 1.05.064 2.109.113 3.167.088h1.617l1.616-.064c4.223-.17 8.415-.801 12.5-1.883 4.096-1.06 8.065-2.558 11.84-4.467 3.757-1.915 7.302-4.22 10.577-6.876 9.705-8.074 16.747-18.89 20.202-31.031 4.65-16.1 3.046-33.362-4.493-48.329-3.769-7.55-9.06-14.24-15.54-19.648l-1.227-1.026c-.453-.382-.84-.835-1.148-1.341-.56-.96-1-1.986-1.309-3.054-.302-1.01-.661-2.003-1.075-2.973-.38-.957-1.01-1.794-1.826-2.424-.843-.574-1.85-.858-2.869-.808-1.05.034-2.093.164-3.119.388-1.042.202-2.085.445-3.152.622-1.087.264-2.22.275-3.313.033z"/>
                    <path fill="#EA3699" d="M399.801 298.544c1.257.323 2.569.373 3.847.145 1.3-.161 2.594-.395 3.903-.565 1.316-.203 2.654-.225 3.976-.065.666.11 1.31.329 1.907.647.29.177.565.371.808.573.258.218.5.453.727.703 1.802 2.052 2.376 4.759 3.588 7.029.145.29.323.557.477.808.153.25.363.533.573.808.421.478.896.907 1.415 1.276 1.034.808 2.1 1.616 3.119 2.424 8.21 6.745 14.98 15.072 19.903 24.487 10.04 19.143 11.696 41.59 4.574 61.999-3.57 10.05-9.112 19.288-16.3 27.17-3.554 3.917-7.505 7.456-11.79 10.559-4.277 3.115-8.852 5.803-13.656 8.022-4.808 2.2-9.817 3.932-14.958 5.17-5.137 1.265-10.39 2.001-15.677 2.198l-1.98.073h-1.98c-1.325 0-2.642-.065-3.967-.13-1.325-.064-2.634-.201-3.952-.29-1.317-.089-2.626-.315-3.935-.493-5.244-.8-10.399-2.101-15.394-3.886-1.26-.412-2.473-.953-3.71-1.43-1.235-.477-2.423-1.066-3.644-1.616l-.38-.105-.411-.072c-.29-.039-.582-.053-.873-.04-.382.009-.764-.021-1.14-.09-.212-.037-.42-.093-.622-.17-.114-.042-.225-.093-.331-.153l-.178-.113-.113-.097c-.636-.491-1.136-1.136-1.455-1.874-.288-.68-.484-1.394-.581-2.125-.202-1.39-.186-2.73-.388-3.886-.05-.468-.236-.912-.534-1.277-.11-.075-.238-.123-.371-.137-.268-.036-.538-.05-.808-.04-1.252.09-2.495.277-3.718.557-.677.157-1.362.278-2.052.364-.432.04-.868.019-1.293-.065-.29-.062-.564-.18-.808-.347l-.154-.121-.097-.081-.186-.154c-8.307-6.754-15.132-15.147-20.048-24.657-4.918-9.524-7.882-19.934-8.72-30.62-1.68-21.61 5.546-42.967 20-59.122.425-.515.879-1.006 1.358-1.47l1.406-1.422 1.414-1.422c.455-.489.938-.95 1.447-1.381l3.095-2.561c.509-.429 1.002-.881 1.535-1.285l1.616-1.163 3.233-2.335c1.123-.72 2.287-1.374 3.418-2.06 2.288-1.359 4.645-2.596 7.063-3.709.299-.145.59-.299.897-.436l.929-.363 1.85-.736 1.851-.735c.609-.262 1.232-.488 1.867-.678 2.545-.752 5.034-1.665 7.644-2.166 1.293-.282 2.578-.597 3.879-.856l3.927-.582 1.964-.282 1.972-.138 3.951-.274h3.96c1.318-.029 2.637.011 3.951.12l3.944.316c.331 0 .662.048.986.089l.978.153 1.947.307c5.211.815 10.335 2.114 15.305 3.878zm-.089.242c-9.911-3.478-20.413-4.966-30.901-4.378l-3.911.38-1.948.201-1.93.34-3.856.686c-1.268.291-2.529.639-3.798.962-2.52.66-5.004 1.45-7.442 2.367-.62.207-1.227.45-1.818.727l-1.786.808-1.786.808-.897.388-.865.452c-9.284 4.68-17.574 11.114-24.412 18.945-13.737 15.796-20.635 36.4-19.176 57.28 1.449 20.927 11.328 40.37 27.378 53.88.307.622 1.616.25 2.91 0 1.33-.29 2.68-.47 4.04-.542.395-.005.79.027 1.18.097.517.087.997.33 1.373.695.557.644.907 1.44 1.002 2.286.21 1.447.162 2.747.315 3.967.036 1.103.503 2.147 1.302 2.909.407.246.883.357 1.357.315.368-.004.736.023 1.1.08.185 0 .37.065.557.106.216.05.427.12.63.21 1.18.549 2.343 1.13 3.54 1.615 1.195.485 2.424 1.05 3.62 1.479 19.77 7.59 41.773 6.846 60.986-2.06 9.471-4.477 17.904-10.88 24.76-18.8 6.842-7.868 12.06-17.011 15.353-26.903 3.277-9.86 4.61-20.26 3.928-30.628-.693-10.376-3.368-20.523-7.88-29.892-4.56-9.428-10.982-17.837-18.876-24.722-.986-.865-2.02-1.672-3.022-2.513-.543-.407-1.039-.873-1.48-1.39-.225-.258-.395-.549-.597-.807-.202-.259-.34-.582-.485-.88-1.196-2.376-1.73-5.042-3.418-7.021-.21-.24-.437-.464-.679-.671-.257-.201-.527-.385-.808-.55-.562-.304-1.171-.515-1.802-.621-1.289-.166-2.595-.15-3.879.048-1.3.162-2.594.388-3.911.541-1.321.223-2.675.156-3.968-.194z"/>
                    <path fill="#EA3699" d="M406.484 284.72c1.495.418 3.06.522 4.598.308 1.56-.13 3.111-.348 4.687-.444 1.583-.168 3.184-.023 4.711.428 1.508.576 2.791 1.621 3.66 2.98 1.787 2.643 2.538 5.818 4.494 8.201.509.574 1.077 1.091 1.697 1.543l1.85 1.446c1.269.946 2.425 1.98 3.637 3.006 9.557 8.295 17.355 18.42 22.933 29.779 11.354 23.075 12.67 49.813 3.637 73.89-4.503 11.876-11.34 22.73-20.106 31.92-4.355 4.574-9.164 8.694-14.351 12.297l-.962.687-.994.646-1.98 1.285c-1.333.848-2.707 1.616-4.04 2.423-1.333.808-2.772 1.495-4.186 2.19l-2.133 1.018-1.067.509-1.091.46c-11.599 5.009-24.063 7.709-36.695 7.95-3.15.063-6.3-.031-9.439-.283-1.616-.105-3.135-.307-4.703-.452-1.567-.146-3.127-.436-4.679-.711-6.219-1.096-12.318-2.787-18.214-5.05-2.95-1.114-5.834-2.423-8.67-3.813-.38-.178-.671-.34-.986-.452-.324-.115-.656-.201-.994-.259-.342-.056-.688-.083-1.035-.08h-1.228c-.31-.018-.611-.098-.889-.235-.149-.076-.287-.171-.412-.283-.135-.139-.257-.29-.364-.452-.218-.447-.36-.928-.42-1.422-.111-.804-.181-1.613-.21-2.424-.015-1.5-.174-2.997-.477-4.467l-.153-.46c-.065-.122-.122-.267-.186-.364-.123-.19-.297-.341-.501-.437-.564-.225-1.178-.295-1.778-.202-1.504.215-2.99.542-4.444.978-.417.11-.841.191-1.27.242-.268.03-.539.03-.807 0-.176-.013-.35-.045-.517-.097-.108-.033-.21-.08-.308-.137-.095-.053-.187-.112-.274-.178l-1.81-1.535c-9.712-8.204-17.639-18.311-23.29-29.698-17.45-35.258-11.344-77.624 15.354-106.522 4.326-4.651 9.098-8.867 14.247-12.587 5.169-3.675 10.694-6.82 16.493-9.388 11.593-5.087 24.077-7.833 36.735-8.079 6.29-.105 12.578.37 18.78 1.422 6.192 1.058 12.269 2.7 18.15 4.904zm-.089.243c-5.868-2.196-11.936-3.82-18.117-4.847-6.17-.958-12.42-1.307-18.659-1.042-6.237.296-12.43 1.189-18.497 2.666-6.038 1.515-11.916 3.609-17.552 6.253-5.594 2.691-10.926 5.896-15.927 9.574-4.961 3.71-9.546 7.9-13.689 12.506-1.042 1.139-2.012 2.35-3.022 3.522-1.01 1.172-1.915 2.424-2.829 3.676-.913 1.252-1.818 2.497-2.666 3.79-.849 1.292-1.697 2.585-2.473 3.918-3.174 5.306-5.808 10.916-7.863 16.747-8.323 23.268-7.046 49.864 3.863 72.13 5.43 11.172 13.056 21.136 22.424 29.294l1.762 1.527c.065.057 0 0 0 0h.057c.128.016.259.016.387 0 .348-.042.694-.104 1.035-.185 1.557-.444 3.145-.77 4.751-.978.961-.11 1.935.046 2.812.452.497.264.916.654 1.213 1.131.137.227.226.453.339.68.113.225.137.443.202.662.314 1.596.465 3.22.453 4.847 0 .808.056 1.551.153 2.246.032.277.1.548.202.808 0 0 .049.04.065.048.072.04.152.063.234.065h1.123c.437.007.872.05 1.301.13.437.08.864.201 1.277.363l.606.266.534.275c2.763 1.414 5.575 2.755 8.468 3.91 11.586 4.71 23.996 7.06 36.502 6.908 6.248-.075 12.473-.765 18.586-2.06 6.107-1.325 12.064-3.27 17.778-5.801 5.716-2.511 11.152-5.617 16.218-9.267 15.187-11.052 26.697-26.416 33.034-44.095 4.228-11.683 6.123-24.081 5.576-36.493-.544-12.428-3.48-24.634-8.646-35.951-5.26-11.366-12.754-21.557-22.037-29.966-1.155-1.05-2.31-2.108-3.54-3.07l-1.826-1.478c-.636-.479-1.224-1.02-1.753-1.616-2.012-2.553-2.7-5.728-4.412-8.313-.805-1.32-2.028-2.332-3.475-2.876-1.484-.445-3.04-.593-4.582-.437-1.56.09-3.111.307-4.679.429-1.577.208-3.18.09-4.71-.348z"/>
                    <path fill="#E517E5" d="M413.143 270.922c1.74.52 3.567.688 5.373.493 1.81-.09 3.629-.291 5.463-.3 1.848-.108 3.694.242 5.374 1.019 1.606.933 2.925 2.288 3.814 3.918.946 1.575 1.673 3.232 2.53 4.847.764 1.627 1.866 3.073 3.232 4.242 2.909 2.197 5.721 4.522 8.436 6.972 27.697 25.149 40.605 62.711 34.217 99.568-6.389 36.856-31.187 67.886-65.732 82.25-27.382 11.305-58.123 11.337-85.528.09-3.378-1.401-6.691-2.955-9.94-4.662-.371-.214-.76-.395-1.163-.542-.397-.14-.805-.242-1.22-.307-.842-.072-1.69.033-2.49.307-.48.141-.977.225-1.478.25-.317.003-.63-.069-.913-.21-.176-.081-.331-.203-.453-.355-.105-.133-.187-.283-.242-.444-.161-.496-.243-1.014-.243-1.535v-1.406c.081-1.842.291-3.651.25-5.413.03-.81-.123-1.615-.444-2.359-.507-.525-1.209-.818-1.94-.808-1.773-.11-3.555-.019-5.308.275-.971.117-1.954.092-2.917-.073-.256-.048-.507-.116-.752-.202-.29-.098-.563-.243-.808-.428l-1.034-.905c-11.121-9.66-20.133-21.508-26.473-34.804-19.575-41.02-11.964-89.844 19.168-122.963 10.076-10.735 22.242-19.296 35.75-25.158 27.194-11.712 57.918-12.2 85.47-1.357zm-.057.161c-6.8-2.617-13.836-4.578-21.01-5.857-7.174-1.26-14.456-1.801-21.738-1.616-7.27.214-14.5 1.134-21.592 2.747-51.443 11.854-87.1 58.721-84.792 111.45.607 14.509 4.113 28.75 10.31 41.882 6.204 13.126 15 24.86 25.86 34.497l1.018.905c.123.081.256.146.396.194.181.066.368.117.557.154.835.15 1.688.174 2.53.072 1.85-.281 3.725-.354 5.592-.218.506.055 1.003.175 1.478.356.562.194 1.04.572 1.358 1.074.433.924.636 1.938.59 2.957 0 1.89-.21 3.708-.3 5.502v1.325c-.004.39.048.78.154 1.155.018.054.043.106.073.154l.09.056c.125.063.263.096.403.097.408-.027.811-.097 1.204-.21 1.405-.499 2.944-.473 4.332.073.452.166.89.369 1.309.606 3.189 1.729 6.459 3.299 9.81 4.71 6.694 2.829 13.65 4.994 20.768 6.463 7.125 1.472 14.38 2.221 21.656 2.239 7.275.026 14.535-.667 21.673-2.07 14.308-2.836 27.89-8.55 39.92-16.796 5.96-4.147 11.489-8.884 16.5-14.138 10.051-10.513 17.917-22.914 23.145-36.485 2.617-6.755 4.548-13.758 5.761-20.9 1.202-7.141 1.716-14.38 1.536-21.62-.377-14.525-3.597-28.836-9.48-42.124-5.923-13.316-14.461-25.308-25.107-35.265-2.657-2.486-5.44-4.835-8.339-7.036-1.412-1.199-2.55-2.687-3.337-4.363-.808-1.616-1.568-3.296-2.497-4.847-.853-1.593-2.128-2.92-3.685-3.838-1.641-.763-3.446-1.11-5.253-1.01-1.818 0-3.636.186-5.454.267-1.831.185-3.68.001-5.439-.542z"/>
                    <path fill="#E517E5" d="M419.818 257.074c1.978.62 4.057.856 6.125.695 2.069-.048 4.153-.202 6.238-.113 2.115-.028 4.194.553 5.988 1.673 1.686 1.263 3.067 2.89 4.04 4.758 1.043 1.81 1.924 3.7 3.03 5.445.543.87 1.174 1.683 1.884 2.424.76.711 1.57 1.367 2.424 1.963 3.289 2.553 6.465 5.244 9.52 8.08 37.81 35.293 49.871 90.276 30.303 138.15-6.393 15.497-15.81 29.564-27.702 41.381-11.898 11.771-26.039 21.035-41.584 27.243-31.393 12.502-66.472 12.002-97.496-1.39-3.835-1.659-7.582-3.495-11.24-5.51-.834-.472-1.773-.725-2.731-.735-1.013.048-2.022.156-3.023.323-.553.082-1.114.107-1.672.073-.317-.018-.629-.089-.922-.21-.335-.145-.618-.39-.808-.703-.302-.55-.447-1.174-.42-1.802-.001-.54.042-1.081.13-1.616.306-2.116.896-4.12 1.212-6.123.084-.48.13-.967.137-1.455.036-.39-.043-.784-.226-1.13-.396-.51-1.423-.695-2.376-.671-1.972 0-4.04.517-6.125.743-1.15.207-2.333.09-3.419-.34-.154-.07-.3-.157-.436-.258-.118-.088-.231-.183-.34-.283l-.59-.509-1.18-1.034c-12.594-11.106-22.771-24.682-29.898-39.886-22-46.902-12.94-102.497 22.812-139.993 11.578-12.151 25.517-21.81 40.962-28.382 31.095-13.168 66.146-13.458 97.455-.808h-.072zm-.065.162c-47.567-19.122-101.993-7.157-137.149 30.15-22.997 24.314-35.248 56.853-33.996 90.292.598 16.557 4.496 32.829 11.467 47.86 6.994 15.036 16.958 28.502 29.293 39.587l1.164 1.034.581.51.259.226c.073.054.152.1.234.137.866.318 1.8.4 2.707.234 2.013-.194 4.04-.678 6.255-.703.571-.008 1.141.054 1.697.186.65.138 1.233.49 1.657 1.002.352.556.513 1.21.46 1.866-.017.542-.071 1.082-.161 1.616-.356 2.1-.954 4.096-1.261 6.1-.082.483-.126.972-.13 1.462-.026.415.055.83.235 1.204.07.128.186.226.323.275.188.077.387.124.59.137.48.03.963.008 1.439-.065 1.052-.16 2.112-.262 3.175-.307 1.136.024 2.247.332 3.233.897 3.615 2.025 7.318 3.875 11.11 5.55 15.23 6.684 31.631 10.286 48.26 10.6 16.647.356 33.194-2.667 48.639-8.887 15.434-6.2 29.424-15.511 41.099-27.356 11.65-11.814 20.844-25.818 27.055-41.203 3.096-7.67 5.418-15.629 6.933-23.76 1.5-8.131 2.209-16.389 2.117-24.657-.2-16.592-3.668-32.981-10.206-48.232-6.554-15.286-16.121-29.095-28.13-40.605-2.993-2.877-6.135-5.596-9.414-8.144-.852-.615-1.662-1.287-2.424-2.011-.722-.765-1.364-1.601-1.915-2.497-1.115-1.777-1.988-3.676-3.014-5.47-.942-1.84-2.287-3.445-3.936-4.693-1.757-1.083-3.786-1.644-5.85-1.616-2.069-.105-4.146.04-6.23.08-2.099.134-4.203-.138-6.198-.799h.032z"/>
                    <path fill="#BA12D8" d="M426.492 243.219c2.166.856 4.55.889 6.861.913 2.311.024 4.67-.105 7.014.097 1.174.089 2.334.308 3.459.654 1.125.367 2.174.936 3.095 1.68 1.769 1.558 3.235 3.429 4.323 5.519 1.096 2.054 2.307 4.045 3.628 5.962.676.935 1.472 1.777 2.368 2.504l2.772 2.141c3.668 2.898 7.197 5.96 10.586 9.186 34.588 33.078 49.877 81.53 40.535 128.463-9.34 46.933-42.017 85.843-86.637 103.163-17.513 6.76-36.181 10.024-54.95 9.606-18.782-.433-37.292-4.587-54.457-12.224-4.282-1.907-8.463-4.015-12.541-6.326l-.388-.21-.186-.105c-.038-.02-.08-.036-.121-.048-.265-.087-.535-.157-.808-.21-.533-.11-1.073-.178-1.616-.202-1.126-.016-2.25.106-3.346.363-.59.13-1.186.226-1.786.291-.335.04-.674.04-1.01 0-.467-.047-.886-.31-1.131-.71-.097-.2-.154-.418-.17-.64v-.5c0-.323 0-.622.065-.921.056-.598.145-1.18.234-1.761.356-2.327.808-4.613 1.075-6.9.165-1.086.181-2.19.048-3.28-.064-.76-1.163-1.058-2.238-1.066-2.206 0-4.501.573-6.885.808-1.266.132-2.545-.037-3.733-.493-.599-.229-1.164-.536-1.681-.913-.541-.396-.93-.808-1.374-1.188-14.025-12.577-25.323-27.895-33.196-45.008-24.314-52.78-13.724-115.07 26.667-156.854 13.061-13.562 28.758-24.312 46.125-31.59 34.986-14.579 74.335-14.652 109.375-.201h.024zm-.064.162c-53.179-21.74-114.242-8.834-154.07 32.564-39.826 41.398-50.35 102.904-26.554 155.184 7.742 16.944 18.83 32.15 32.598 44.701.429.38.857.808 1.26 1.107.424.316.889.572 1.383.76.998.392 2.076.541 3.143.436 2.263-.162 4.55-.744 7.022-.728.663 0 1.32.121 1.94.356.35.14.666.353.93.622.15.156.272.337.363.533.072.173.129.351.17.533.16 1.227.14 2.471-.057 3.693-.291 2.35-.76 4.637-1.131 6.931-.09.566-.178 1.14-.235 1.697 0 .283-.056.565-.064.808v.573c0-.024.113.114.323.154.244.025.49.025.735 0 .542-.048 1.107-.154 1.673-.259 1.178-.278 2.386-.408 3.596-.387.614.025 1.225.103 1.826.234.3.073.59.145.913.25l.283.13.186.113.38.21c4.035 2.327 8.175 4.449 12.42 6.366 25.652 11.563 54.175 15.198 81.908 10.438 27.757-4.749 53.372-17.944 73.35-37.785 13.242-13.133 23.743-28.764 30.893-45.986 3.584-8.576 6.291-17.492 8.081-26.612 5.405-27.52 2.534-56.024-8.25-81.914-7.198-17.236-17.795-32.846-31.16-45.897-3.339-3.261-6.845-6.346-10.506-9.242l-2.755-2.157c-.913-.75-1.728-1.614-2.424-2.57-1.317-1.934-2.526-3.941-3.62-6.01-1.065-2.065-2.5-3.916-4.235-5.461-.9-.716-1.92-1.264-3.014-1.616-1.106-.347-2.247-.57-3.402-.663-2.311-.21-4.655-.113-6.99-.12-2.336-.009-4.728-.106-6.91-.986z"/>
                    <path fill="#BA12D8" d="M433.159 229.363c2.424.962 5.034 1.05 7.596 1.123 2.562.073 5.18 0 7.758.332 1.295.15 2.568.457 3.79.913 1.213.496 2.331 1.198 3.305 2.076 1.861 1.82 3.436 3.912 4.67 6.205 1.228 2.275 2.653 4.437 4.26 6.463.842.966 1.793 1.83 2.835 2.577 1.027.808 2.061 1.567 3.063 2.383 4.04 3.232 7.925 6.652 11.653 10.26 46.087 44.732 59.87 113.215 34.675 172.286-16.577 38.621-48.045 68.918-87.274 84.022-19.414 7.421-40.095 10.967-60.873 10.438-20.793-.54-41.271-5.209-60.243-13.735-4.735-2.127-9.355-4.478-13.859-7.053l-.848-.484c-.26-.163-.53-.312-.808-.445-.506-.248-1.055-.396-1.616-.436-.135-.008-.27-.008-.404 0l-.46.065-.93.17-1.891.403c-.639.138-1.277.267-1.94.364-.69.125-1.395.152-2.092.08-.426-.042-.832-.201-1.172-.46-.208-.175-.357-.409-.429-.67-.06-.192-.101-.39-.12-.59-.047-.685-.022-1.373.072-2.052.315-2.626.88-5.139 1.18-7.667.188-1.225.22-2.468.097-3.7-.042-.262-.115-.517-.218-.76-.083-.192-.224-.354-.404-.46-.504-.256-1.054-.407-1.617-.445-1.25-.1-2.507-.1-3.757 0-1.293.065-2.538.226-3.936.202-2.884-.137-5.3-1.866-7.143-3.668-15.378-14.083-27.716-31.159-36.259-50.178-26.395-58.655-14.126-127.488 30.91-173.417 14.586-14.891 32.047-26.666 51.321-34.61 38.83-15.933 82.403-15.764 121.108.468zm-.065.162c-58.866-24.571-126.776-10.616-171.177 35.176-7.144 7.391-13.563 15.45-19.168 24.067-11.21 17.31-18.844 36.686-22.448 56.99-1.783 10.132-2.574 20.414-2.36 30.7.443 20.62 4.992 40.944 13.382 59.785 8.412 18.858 20.544 35.826 35.669 49.888.87.89 1.854 1.661 2.925 2.294 1.024.617 2.178.982 3.37 1.067 1.18 0 2.513-.122 3.806-.178 1.326-.109 2.658-.109 3.984 0 .738.06 1.454.278 2.101.638.374.234.67.574.849.978.154.35.26.72.315 1.098.138 1.346.1 2.704-.113 4.04-.332 2.601-.914 5.138-1.229 7.65-.086.6-.113 1.206-.08 1.81.005.176.052.348.137.501.18.128.393.203.614.219 1.228.042 2.456-.094 3.644-.404l1.908-.396.97-.17.5-.073c.188-.016.378-.016.566 0 .721.04 1.427.224 2.077.542.34.17.606.347.889.5l.808.485c4.455 2.586 9.034 4.95 13.737 7.094 28.377 12.888 59.958 17.007 90.692 11.827 30.765-5.162 59.198-19.656 81.447-41.518 14.75-14.473 26.483-31.725 34.521-50.76 4.022-9.48 7.08-19.34 9.132-29.432 6.183-30.48 3.182-62.107-8.623-90.88-7.846-19.147-19.468-36.518-34.174-51.076-3.666-3.638-7.518-7.084-11.539-10.325-1.002-.808-2.036-1.616-3.046-2.424-1.061-.763-2.03-1.647-2.885-2.634-1.603-2.03-3.03-4.192-4.267-6.463-1.212-2.266-2.76-4.336-4.59-6.14-.95-.865-2.044-1.557-3.232-2.044-1.204-.451-2.457-.755-3.734-.905-2.567-.252-5.146-.37-7.725-.356-2.57-.088-5.22-.185-7.653-1.171z"/>
                    <path fill="#BA12D8" d="M439.826 215.524c2.626 1.075 5.519 1.228 8.34 1.357 2.844.029 5.686.223 8.508.582 1.416.21 2.797.61 4.105 1.188 1.289.611 2.468 1.43 3.491 2.423 1.958 2.075 3.654 4.381 5.05 6.868 1.386 2.472 3.048 4.778 4.955 6.875 1.014.974 2.094 1.878 3.232 2.706 1.131.865 2.254 1.737 3.345 2.65 4.412 3.587 8.647 7.376 12.703 11.367 50.172 49.512 64.704 124.782 36.566 189.405-9.156 20.938-22.379 39.85-38.9 55.64-16.52 15.778-36.06 28.051-57.448 36.081-21.38 8.006-44.124 11.739-66.942 10.987-22.813-.757-45.246-6.052-65.988-15.576-5.172-2.386-10.217-5.017-15.136-7.893l-.929-.533-.46-.275c-.122-.065-.065-.04-.146-.065l-.21-.12c-.668-.133-1.347-.2-2.028-.203-1.39.078-2.767.308-4.106.687-.694.161-1.398.315-2.109.436-.742.146-1.502.181-2.254.105-.454-.05-.879-.246-1.212-.557-.254-.367-.397-.799-.412-1.244-.061-.732-.061-1.467 0-2.198.258-2.868.76-5.655 1.09-8.467.187-1.387.28-2.785.275-4.185.015-.65-.086-1.299-.299-1.914-.282-.51-.789-.854-1.365-.93-1.352-.23-2.732-.248-4.09-.056-1.397.13-2.795.34-4.25.452-1.5.146-3.013-.102-4.388-.719-.684-.312-1.328-.708-1.915-1.18-.598-.484-1.067-.969-1.616-1.453-51.578-48.099-68.33-122.92-42.183-188.412s89.828-108.217 160.358-107.587c22.816.144 45.375 4.821 66.368 13.758zm-.057.121c-64.595-27.4-139.383-12.465-188.494 37.64-15.882 16.245-28.401 35.463-36.841 56.554-4.195 10.519-7.327 21.431-9.35 32.574-2.013 11.143-2.93 22.457-2.739 33.779.417 22.707 5.362 45.103 14.546 65.876 9.187 20.781 22.476 39.495 39.07 55.018.51.477 1.035 1.01 1.536 1.422.523.42 1.095.772 1.705 1.05 1.227.557 2.578.782 3.92.655 1.39-.097 2.803-.307 4.226-.437 1.464-.19 2.95-.155 4.404.105.394.091.771.247 1.115.46.379.24.68.586.864.995.261.725.387 1.491.372 2.262-.008 1.443-.11 2.884-.307 4.314-.34 2.827-.856 5.655-1.123 8.426-.064.68-.072 1.363-.024 2.044 0 .282.07.56.202.808.204.156.447.251.703.275.663.07 1.333.04 1.988-.089.686-.113 1.373-.267 2.068-.42.695-.154 1.382-.315 2.085-.453.722-.159 1.46-.238 2.198-.234.738.004 1.475.08 2.198.226l.291.073c.116.034.228.083.331.145l.453.275.921.541c4.881 2.882 9.894 5.521 15.039 7.918 20.647 9.579 42.999 14.943 65.746 15.778 11.354.413 22.722-.29 33.94-2.1 33.844-5.566 65.2-21.272 89.923-45.04 16.38-15.776 29.47-34.64 38.514-55.504 4.496-10.401 7.937-21.227 10.27-32.316 2.313-11.084 3.545-22.367 3.677-33.69.234-22.725-4.028-45.272-12.541-66.344-8.528-21.102-21.213-40.274-37.302-56.376-4.013-4.017-8.229-7.827-12.63-11.415-1.09-.905-2.206-1.786-3.33-2.65-1.154-.838-2.252-1.75-3.288-2.73-1.909-2.12-3.575-4.445-4.97-6.933-1.38-2.475-3.057-4.773-4.994-6.843-1.01-.987-2.172-1.805-3.442-2.423-1.288-.574-2.647-.97-4.04-1.18-2.815-.365-5.648-.565-8.486-.598-2.836-.194-5.737-.347-8.404-1.438z"/>
                    <path fill="#BA12D8" d="M446.468 201.685c2.86 1.187 6.004 1.39 9.075 1.616 3.096.071 6.183.341 9.245.807 1.534.275 3.02.77 4.412 1.47 1.371.737 2.618 1.686 3.693 2.812 2.074 2.307 3.907 4.819 5.47 7.498 1.562 2.659 3.463 5.103 5.657 7.27 2.36 1.964 4.897 3.774 7.273 5.77 4.778 3.926 9.357 8.075 13.737 12.449 54.294 54.18 69.732 136.134 38.87 206.346-10.06 22.752-24.526 43.287-42.563 60.423-18.039 17.106-39.341 30.402-62.634 39.095-23.283 8.672-48.043 12.688-72.874 11.82-24.846-.887-49.265-6.727-71.823-17.177-5.619-2.607-11.097-5.486-16.436-8.636l-2.004-1.188c-.146-.089-.372-.234-.453-.267-.08-.032-.323-.113-.493-.161-.352-.09-.712-.153-1.074-.186-.738-.05-1.478-.013-2.206.113-.752.137-1.503.291-2.263.444-1.538.374-3.113.574-4.695.598-.422-.01-.84-.075-1.245-.194-.459-.12-.874-.37-1.196-.719-.26-.381-.419-.824-.46-1.284-.05-.402-.078-.807-.08-1.212.048-3.167.589-6.213.92-9.283.178-1.527.332-3.054.364-4.573.03-.745-.011-1.492-.121-2.23-.05-.335-.148-.662-.291-.969-.064-.133-.152-.254-.259-.355-.115-.12-.242-.23-.38-.323-1.115-.808-2.69-.808-4.177-.808-1.487 0-3.047.266-4.615.38-3.244.38-6.493-.68-8.889-2.901-18.102-17.092-32.57-37.66-42.537-60.471-30.795-70.315-15.407-152.307 38.788-206.678 54.226-54.079 135.946-69.647 206.264-39.296zm-.048.12c-22.785-9.806-47.308-14.932-72.114-15.076-24.783-.111-49.342 4.697-72.251 14.148-22.884 9.438-43.637 23.378-61.027 40.993-17.382 17.586-31.13 38.422-40.46 61.32-4.619 11.427-8.084 23.286-10.344 35.402-6.814 36.611-2.528 74.423 12.307 108.582 9.868 22.69 24.183 43.172 42.101 60.237 1.051 1.038 2.342 1.801 3.758 2.222.705.22 1.43.37 2.166.444.745.053 1.493.053 2.238 0 1.527-.105 3.063-.307 4.638-.364.81-.038 1.621-.002 2.425.105.842.108 1.648.413 2.351.89.178.129.346.272.501.427.171.17.313.366.42.582.185.391.31.808.372 1.236.12.802.164 1.614.13 2.424-.041 1.616-.21 3.118-.388 4.661-.348 3.079-.897 6.149-.954 9.17 0 .367.022.734.065 1.099.027.31.124.612.282.88.094.1.203.185.324.25.145.079.296.143.452.195.34.092.69.146 1.043.161 1.513-.028 3.02-.217 4.493-.565.76-.154 1.519-.307 2.286-.436.8-.14 1.615-.178 2.425-.113.409.038.814.108 1.212.21.204.056.403.127.598.21.106.047.208.1.307.161l.242.146 1.988 1.195c5.301 3.151 10.753 6.038 16.356 8.661 51.189 23.914 110.487 23.206 161.09-1.921 50.604-25.128 87-71.938 98.872-127.166 2.57-12.068 3.96-24.357 4.153-36.694.362-24.744-4.172-49.314-13.341-72.3-11.51-28.816-30.088-54.273-54.021-74.028-2.36-2.003-4.848-3.797-7.273-5.792-2.198-2.187-4.1-4.654-5.656-7.336-1.55-2.67-3.37-5.174-5.43-7.473-1.06-1.116-2.29-2.057-3.645-2.787-1.374-.696-2.84-1.188-4.356-1.463-3.051-.484-6.131-.77-9.22-.856-3.07-.226-6.222-.436-9.148-1.64h.033z"/>
                    <path fill="#BA12D8" d="M453.135 187.805c3.095 1.293 6.465 1.56 9.794 1.826 3.34.125 6.667.49 9.956 1.09 1.648.337 3.236.92 4.71 1.73 1.447.849 2.76 1.908 3.896 3.142 2.197 2.522 4.179 5.225 5.923 8.08 1.733 2.848 3.87 5.43 6.343 7.666l3.96 3.07c1.325 1.018 2.602 2.1 3.903 3.143 5.145 4.266 10.077 8.774 14.796 13.524 18.887 19.06 33.763 41.71 43.75 66.612 9.983 24.904 14.926 51.54 14.546 78.366-.393 26.848-6.186 53.343-17.035 77.906-10.875 24.557-26.496 46.725-45.964 65.23-19.468 18.466-42.439 32.847-67.556 42.294-25.114 9.429-51.84 13.821-78.651 12.926-26.833-.91-53.21-7.187-77.576-18.46-6.061-2.82-11.992-5.93-17.778-9.332l-2.158-1.292-1.059-.63c-.361-.17-.74-.3-1.13-.388-1.604-.364-3.258-.446-4.89-.243-1.616.186-3.289.518-4.986.614-.883.085-1.773-.068-2.577-.444-.408-.217-.76-.527-1.027-.905-.228-.386-.391-.806-.485-1.244-.264-1.694-.332-3.413-.202-5.122.065-1.672.186-3.337.3-5.009.113-1.672.218-3.329.234-4.985.012-.81-.031-1.62-.13-2.423-.045-.388-.14-.768-.282-1.132-.161-.325-.403-.603-.703-.807-.661-.44-1.418-.717-2.207-.808-.803-.103-1.614-.146-2.424-.13-1.656 0-3.33.138-5.026.065-1.704-.064-3.386-.397-4.986-.986-.803-.312-1.568-.716-2.279-1.203-.355-.243-.69-.513-1.002-.808l-.889-.913c-9.641-9.294-18.333-19.524-25.947-30.539-15.232-22.117-25.886-47.056-31.338-73.35-15.403-73.855 11.697-150.131 70.248-197.725 58.55-47.594 138.769-58.552 207.944-28.406h-.016zm0 .073c-75.736-32.836-163.847-16.134-222.305 42.14-18.927 18.903-33.95 41.344-44.21 66.046-31.389 76.245-13.142 163.917 46.06 221.316 2.166 2.57 5.496 3.58 8.768 3.733 1.617.073 3.305-.057 4.994-.057.849-.013 1.697.039 2.538.154.88.091 1.726.393 2.464.88.384.274.69.64.89 1.067.159.413.268.845.323 1.285.099.844.142 1.694.129 2.544 0 1.68-.138 3.353-.259 5.017-.12 1.665-.234 3.329-.307 4.993-.116 1.644-.04 3.295.226 4.92.075.381.211.747.405 1.083.209.302.485.55.808.727.717.34 1.514.474 2.303.388 1.616-.089 3.289-.412 4.953-.59 1.691-.209 3.406-.121 5.067.259.426.102.84.248 1.236.436.388.218.72.428 1.091.646l2.142 1.293c5.737 3.404 11.633 6.52 17.689 9.347 24.289 11.297 50.595 17.615 77.366 18.582 26.777.984 53.48-3.397 78.538-12.886 25.053-9.474 47.955-23.869 67.354-42.334 19.368-18.49 34.897-40.618 45.697-65.117 5.368-12.214 9.5-24.934 12.332-37.971 2.816-13.045 4.35-26.333 4.582-39.676 1-54.077-19.83-106.278-57.787-144.817-4.687-4.75-9.602-9.261-14.747-13.532-1.293-1.05-2.562-2.141-3.887-3.159l-3.952-3.078c-2.49-2.248-4.635-4.85-6.367-7.724-1.733-2.852-3.7-5.554-5.883-8.079-1.129-1.224-2.43-2.277-3.863-3.126-1.459-.806-3.03-1.386-4.663-1.721-3.282-.61-6.604-.985-9.94-1.123-3.312-.283-6.714-.558-9.817-1.866h.032z"/>
                    <path fill="#BA12D8" d="M546.09 503.775c-35.13 46.65-87.595 77.16-145.521 84.628-28.68 3.74-57.817 1.736-85.714-5.898-13.914-3.823-27.407-9.04-40.275-15.568-3.232-1.616-6.384-3.336-9.511-5.13l-2.344-1.357c-.373-.232-.759-.442-1.155-.63-.404-.154-.808-.3-1.253-.42-1.715-.5-3.478-.817-5.26-.946-3.556-.137-7.192.17-10.805-.388-.916-.133-1.807-.406-2.642-.808-.442-.21-.822-.53-1.107-.929-.253-.404-.433-.85-.533-1.316-.29-1.802-.317-3.636-.081-5.446.331-3.603 1.002-7.15 1.277-10.72.064-.888.064-1.78 0-2.667.02-.855-.317-1.68-.93-2.278-.694-.523-1.513-.854-2.376-.961-.879-.144-1.767-.222-2.658-.235-1.794-.072-3.58 0-5.406-.064-1.824-.16-3.598-.679-5.22-1.527-1.624-.828-3.099-1.92-4.364-3.232-1.269-1.276-2.57-2.52-3.806-3.83-30.318-31.27-50.497-70.956-57.9-113.873-12.635-72.446 12.152-146.374 65.908-196.57 21.153-19.737 46.043-35.04 73.205-45.009 40.916-14.98 85.376-17.4 127.677-6.948 7.004 1.734 13.902 3.822 20.695 6.261 1.706.582 3.378 1.253 5.067 1.883 1.69.63 3.354 1.325 5.018 2.003 1.665.68 3.33 1.455 4.97 2.085 1.691.57 3.434.97 5.204 1.196 3.54.5 7.152.63 10.74 1.082 1.803.215 3.586.572 5.333 1.067 1.767.521 3.431 1.34 4.921 2.423 2.974 2.157 5.172 5.13 7.208 8.08 1.927 3.026 4.049 5.925 6.352 8.676.6.66 1.234 1.288 1.899 1.883.655.59 1.374 1.106 2.085 1.672 1.422 1.115 2.869 2.19 4.259 3.328 1.39 1.14 2.804 2.27 4.177 3.442 1.374 1.172 2.74 2.335 4.09 3.53 5.386 4.783 10.534 9.827 15.442 15.133 9.791 10.581 18.488 22.126 25.956 34.457 46.225 76.198 41.221 172.891-12.623 243.913v.008zm-.05 0c63.264-83.792 57.48-200.84-13.737-277.99-4.848-5.273-9.98-10.304-15.394-15.092-1.341-1.196-2.723-2.351-4.04-3.523-1.317-1.171-2.78-2.286-4.162-3.433-1.382-1.147-2.836-2.214-4.25-3.32-.695-.558-1.439-1.091-2.118-1.705-.68-.606-1.327-1.248-1.939-1.923-2.324-2.765-4.46-5.682-6.392-8.734-2.036-2.94-4.194-5.865-7.079-7.957-2.885-2.093-6.465-2.893-10.004-3.345-3.54-.453-7.16-.582-10.748-1.09-1.805-.23-3.584-.638-5.309-1.22-1.713-.663-3.32-1.398-4.994-2.093-1.672-.695-3.329-1.357-5.002-2.004-1.672-.646-3.353-1.3-5.058-1.882-6.772-2.413-13.652-4.498-20.639-6.253-71.264-17.751-146.675 1.7-200.454 51.705-10.518 9.834-20.05 20.671-28.46 32.357-61.349 85.239-52.733 202.189 20.444 277.522 1.236 1.309 2.537 2.545 3.806 3.822 1.234 1.287 2.677 2.358 4.267 3.167 1.577.824 3.301 1.33 5.074 1.486 1.77.08 3.588 0 5.39.049.91.02 1.817.101 2.715.242.935.116 1.822.479 2.57 1.05.374.314.654.725.808 1.188.142.446.228.907.259 1.373.069.91.069 1.822 0 2.731-.275 3.611-.938 7.15-1.269 10.729-.22 1.764-.193 3.55.081 5.308.09.414.249.81.469 1.171.24.347.565.626.945.808.795.373 1.643.621 2.513.735 3.54.542 7.136.235 10.764.38 1.815.122 3.612.442 5.358.953.44.123.875.268 1.3.437.42.192.828.41 1.22.654l2.336 1.35c3.12 1.785 6.295 3.473 9.495 5.113 93.699 47.431 207.922 20.996 271.243-62.774l-.008.008z"/>
                    <ellipse cx="372.714" cy="372.742" fill="#ED2B91" rx="31.604" ry="31.597"/>
                    <path fill="#ED2B91" d="M411.583 402.1c-2.006 2.629-4.237 5.078-6.667 7.32-2.452 2.24-5.103 4.251-7.919 6.011-2.85 1.76-5.858 3.251-8.986 4.452-3.164 1.19-6.44 2.059-9.778 2.593-6.78 1.06-13.71.601-20.29-1.34-.809-.26-1.617-.494-2.425-.809l-.606-.218-.3-.113h-.08l-.242-.113c-.164-.076-.319-.171-.46-.283-.416-.317-.756-.723-.995-1.188-.155-.294-.282-.602-.38-.92-.257-.926-.43-1.872-.517-2.828l-.242-2.472c-.073-.808-.154-1.543-.283-2.214-.055-.275-.13-.545-.226-.808-.065-.218-.178-.307 0-.194l.105.065c.077.043.158.078.242.105.067.01.135.01.202 0-.053-.008-.108-.008-.161 0-.298.054-.593.127-.881.218-.663.218-1.374.509-2.085.808-.711.299-1.414.662-2.11 1.018-.932.514-1.956.84-3.013.961-.318.029-.637.029-.954 0-.188-.02-.374-.052-.558-.097-.284-.062-.556-.168-.808-.315-.095-.06-.186-.124-.274-.194l-.057-.056-.113-.105-.243-.218-.468-.429-.93-.872-.977-.897c-2.368-2.424-4.482-5.082-6.311-7.933-7.263-11.42-9.893-25.18-7.354-38.473 1.286-6.612 3.856-12.908 7.564-18.533 7.59-11.608 19.777-19.424 33.495-21.482 6.832-1.091 13.816-.75 20.51 1.002l.63.161.315.081.145.04c.142.015.286.015.428 0 .675-.106 1.342-.257 1.996-.452 1.752-.583 3.567-.958 5.406-1.115.613-.025 1.227.026 1.827.154.696.145 1.36.419 1.955.807 1.089.7 1.96 1.691 2.513 2.86.422.892.755 1.823.994 2.78.227.808.412 1.567.63 2.14.117.388.318.744.59 1.043l1.851 1.51c.663.558 1.293 1.148 1.94 1.721.646.574 1.228 1.212 1.842 1.818 2.407 2.477 4.542 5.204 6.368 8.136 3.62 5.836 5.91 12.398 6.707 19.22.784 6.706.22 13.501-1.657 19.987-1.852 6.386-4.872 12.374-8.905 17.66zm-.38-.29c3.937-5.227 6.652-11.27 7.944-17.685 1.24-6.326 1.154-12.84-.25-19.131-1.38-6.163-3.89-12.017-7.403-17.265-1.747-2.589-3.739-5.005-5.947-7.214-.566-.534-1.115-1.083-1.697-1.616-.582-.533-1.172-1.026-1.778-1.52l-.93-.718-.46-.356-.226-.177-.38-.315c-.927-.834-1.621-1.895-2.012-3.079-.315-.846-.585-1.71-.808-2.585-.157-.637-.37-1.26-.639-1.858-.137-.326-.364-.606-.654-.808-.098-.059-.204-.102-.315-.13-.208-.037-.42-.05-.63-.04-1.43.158-2.839.467-4.203.921-.92.277-1.865.472-2.82.582-.677.076-1.362.043-2.028-.097l-.3-.073-.153-.048-.283-.073-.557-.161c-6.041-1.699-12.364-2.155-18.586-1.341-12.694 1.687-24.186 8.377-31.92 18.581-7.93 10.407-10.92 23.756-8.186 36.55.662 3.163 1.67 6.243 3.006 9.186 1.334 2.926 2.975 5.702 4.898 8.28 1.91 2.552 4.076 4.902 6.464 7.013l.897.808.93.743.468.372.226.186.114.089.064.048c.057.057-.097-.08-.145-.105-.202-.121-.227-.097-.227-.113h.049c.094.01.189.01.283 0 .575-.114 1.123-.336 1.616-.654.743-.437 1.495-.849 2.27-1.244.798-.414 1.621-.775 2.465-1.083.487-.176.987-.314 1.495-.412.352-.066.71-.09 1.067-.073.275.01.547.06.808.146.183.055.36.13.525.226.123.074.242.155.356.242.594.48 1.054 1.107 1.333 1.818.204.49.366.995.485 1.51.2.859.352 1.727.453 2.602l.258 2.424c.06.68.182 1.353.364 2.012.021.074.048.147.08.218 0 0 0-.065-.226-.235-.059-.048-.124-.089-.194-.12-.033-.021-.068-.037-.105-.05h.065l.283.098.55.202c.735.274 1.478.517 2.23.76 3.005.936 6.088 1.604 9.212 1.995 1.569.196 3.147.312 4.727.347 1.616.073 3.168 0 4.76-.065 6.44-.385 12.732-2.096 18.48-5.025 5.82-2.998 10.892-7.266 14.837-12.49z"/>
                    <path fill="#BA12D8" d="M330.144 136.931c15.64-2.713 31.497-3.984 47.37-3.797 15.875.256 31.687 2.047 47.217 5.349 1.947.355 3.862.872 5.794 1.333l5.777 1.421 5.714 1.616 2.86.808c.954.275 1.883.614 2.829.921l5.656 1.875c.946.298 1.875.646 2.796 1.01l2.78 1.058c1.85.719 3.725 1.373 5.552 2.14l5.47 2.344 2.732 1.171 2.683 1.293 5.357 2.585c1.764.892 3.596 1.643 5.479 2.246 1.883.598 3.806 1.083 5.73 1.551 3.89.805 7.723 1.866 11.474 3.175 3.747 1.457 7.098 3.774 9.786 6.762 5.47 5.785 9.26 12.983 15.41 18.033 2.974 2.633 5.98 5.219 8.89 7.877 2.908 2.658 5.72 5.502 8.516 8.313 33.504 34.346 55.796 78.048 63.928 125.33 11.171 63.355-3.55 128.542-40.864 180.952s-94.1 87.662-157.634 97.855c-15.684 2.51-31.565 3.565-47.443 3.15l-2.974-.056-2.974-.178-5.939-.355-1.487-.089-1.479-.154-2.957-.307-5.924-.605-5.89-.857c-1.956-.307-3.936-.517-5.875-.929l-5.85-1.115c-.979-.186-1.956-.355-2.926-.565l-2.893-.687c-15.487-3.52-30.566-8.64-44.994-15.277-.922-.388-1.802-.808-2.691-1.285l-2.675-1.365c-1.778-.897-3.564-1.762-5.317-2.675l-5.196-2.924c-1.713-.986-3.483-1.89-5.14-2.99l-5.042-3.166-2.521-1.616c-.842-.487-1.724-.904-2.635-1.244-1.822-.706-3.72-1.194-5.656-1.455-1.964-.226-3.944-.395-5.916-.702-2.008-.218-3.957-.813-5.745-1.754-.928-.506-1.646-1.325-2.028-2.31-.386-.94-.644-1.925-.768-2.933-.517-3.99-.178-7.966-.38-11.908-.016-1.953-.36-3.89-1.018-5.728-.355-.881-.966-1.635-1.754-2.166-.81-.526-1.695-.926-2.626-1.187-1.9-.523-3.833-.923-5.786-1.196-.978-.178-1.947-.299-2.941-.533-.98-.245-1.933-.586-2.845-1.018-1.807-.884-3.474-2.03-4.945-3.401-.731-.685-1.415-1.42-2.045-2.198l-1.931-2.262-3.87-4.524c-1.253-1.535-2.474-3.102-3.71-4.654-1.236-1.55-2.497-3.086-3.66-4.685l-3.532-4.8-1.762-2.423c-.581-.808-1.123-1.616-1.68-2.424l-3.346-4.928c-8.797-13.225-16.342-27.24-22.537-41.866-.76-1.833-1.568-3.651-2.287-5.493l-2.077-5.518-1.042-2.787c-.364-.921-.63-1.883-.954-2.82l-1.842-5.655c-.655-1.875-1.132-3.806-1.681-5.712l-1.616-5.736-1.35-5.801-.67-2.892-.332-1.455-.275-1.462-1.083-5.857c-.177-.978-.38-1.947-.525-2.925l-.412-2.949-.808-5.897c-.275-1.972-.388-3.951-.59-5.922-.202-1.972-.396-3.95-.517-5.93l-.267-5.954c-.064-1.98-.226-3.96-.218-5.947v-5.954c.79-80.985 42.286-156.138 110.409-199.964 13.36-8.576 27.559-15.772 42.376-21.474 14.807-5.722 30.132-10 45.762-12.773zm0 .057c-15.619 2.795-30.93 7.094-45.722 12.837-14.801 5.718-28.98 12.93-42.319 21.523-67.975 43.832-109.306 118.936-109.956 199.802v5.938c0 1.98.153 3.959.218 5.938l.266 5.93c.122 1.98.34 3.943.51 5.914.17 1.971.315 3.95.59 5.914l.807 5.882.404 2.94c.154.978.356 1.947.526 2.925l1.083 5.833.274 1.462.324 1.446.67 2.893 1.35 5.784 1.616 5.72c.55 1.907 1.026 3.83 1.673 5.704l1.842 5.655c.323.938.59 1.89.946 2.812l1.042 2.779 2.077 5.566c.719 1.842 1.527 3.652 2.287 5.478 6.16 14.6 13.673 28.592 22.44 41.793l3.338 4.912c.557.808 1.099 1.616 1.68 2.424l1.754 2.423 3.523 4.783c1.164 1.616 2.425 3.119 3.661 4.678 1.236 1.56 2.424 3.11 3.701 4.645l3.855 4.524 1.93 2.255c.618.764 1.288 1.485 2.005 2.157 1.44 1.343 3.075 2.462 4.848 3.32.88.414 1.797.742 2.74.978.937.226 1.94.355 2.909.525 1.974.28 3.928.685 5.85 1.212.982.279 1.917.704 2.772 1.26.871.597 1.544 1.441 1.932 2.424.686 1.897 1.044 3.896 1.058 5.914.202 3.974-.13 7.965.372 11.86.12.934.362 1.85.72 2.722.18.435.426.84.726 1.204.318.344.686.638 1.091.872 1.732.905 3.618 1.477 5.56 1.689 1.947.307 3.92.469 5.899.703 1.986.263 3.934.762 5.802 1.486.95.358 1.867.798 2.74 1.317l2.52 1.616 5.027 3.159c1.657 1.09 3.418 1.995 5.14 2.99l5.171 2.908c1.754.92 3.54 1.777 5.31 2.674l2.65 1.333c.889.436 1.762.897 2.675 1.284 14.4 6.639 29.448 11.767 44.905 15.302l2.893.687c.97.202 1.94.371 2.917.565l5.835 1.115c1.939.412 3.91.622 5.866.937l5.875.857 5.915.622 2.958.299 1.47.153 1.488.097 5.93.364 2.967.178 2.973.056c15.852.436 31.71-.597 47.37-3.086 79.865-12.902 147.86-65.15 180.877-138.99 33.017-73.84 26.615-159.34-17.029-227.442-8.566-13.343-18.45-25.794-29.503-37.164-2.788-2.811-5.657-5.534-8.493-8.313-2.836-2.78-5.931-5.251-8.89-7.877-1.52-1.288-2.945-2.684-4.266-4.177-1.309-1.494-2.537-3.054-3.741-4.637-2.297-3.224-4.77-6.317-7.41-9.267-2.665-2.943-5.988-5.216-9.697-6.633-3.736-1.31-7.553-2.372-11.427-3.183-1.931-.468-3.854-.961-5.753-1.559-.946-.315-1.883-.646-2.804-1.026-.922-.38-1.81-.808-2.707-1.252l-5.358-2.578-2.675-1.284-2.715-1.18-5.463-2.343c-1.818-.807-3.693-1.43-5.535-2.157l-2.74-1.058c-.92-.355-1.85-.71-2.796-1.01l-5.656-1.882c-.946-.307-1.875-.647-2.828-.921l-2.853-.808-5.713-1.616-5.77-1.43c-1.923-.46-3.838-.986-5.786-1.341-15.516-3.32-31.318-5.13-47.184-5.405-15.861-.23-31.71.999-47.346 3.668h-.008z"/>
                    <path fill="#BA12D8" d="M340.06 103.929c17.766-2.02 35.678-2.432 53.519-1.228 17.847 1.296 35.53 4.29 52.808 8.943 17.248 4.736 33.985 11.17 49.964 19.204 3.976 2.028 7.887 4.209 11.823 6.302 4.006 1.96 8.12 3.692 12.323 5.186 4.223 1.492 8.301 3.363 12.186 5.59 3.8 2.396 7.221 5.345 10.15 8.75 2.95 3.33 5.689 6.868 8.606 10.269 1.446 1.697 2.917 3.377 4.493 4.944l4.848 4.646c3.233 3.102 6.465 6.132 9.503 9.444l4.606 4.848 1.156 1.22 1.09 1.268 2.183 2.545c59.83 68.945 80.665 163.493 55.354 251.193-9.859 34.475-26.408 66.673-48.704 94.758-44.855 56.887-110.704 93.354-182.732 101.198-17.78 1.972-35.703 2.31-53.544 1.01-17.84-1.362-35.504-4.455-52.744-9.234-4.34-1.09-8.558-2.57-12.825-3.91-2.14-.647-4.226-1.455-6.327-2.23l-6.287-2.327c-2.077-.808-4.121-1.72-6.182-2.585l-3.095-1.301-1.543-.638c-.51-.227-1.01-.477-1.52-.711l-6.052-2.884-3.022-1.447-2.958-1.615-5.915-3.16c-.994-.508-1.955-1.082-2.909-1.615l-2.885-1.721c-1.915-1.155-3.854-2.262-5.745-3.458l-5.592-3.7-2.796-1.85c-.938-.622-1.835-1.228-2.82-1.753-1.95-1.056-3.996-1.924-6.11-2.594-2.125-.63-4.315-1.147-6.464-1.842-2.17-.632-4.24-1.56-6.158-2.755-.965-.623-1.807-1.42-2.48-2.35-.345-.455-.648-.939-.906-1.447l-.396-.76-.323-.807c-.795-2.102-1.422-4.263-1.875-6.463-.493-2.173-.93-4.363-1.511-6.512-.519-2.144-1.37-4.194-2.521-6.075-1.314-1.76-3.059-3.151-5.067-4.04-2.007-.956-4.062-1.809-6.158-2.553-1.067-.368-2.108-.805-3.119-1.309-1.002-.524-1.96-1.127-2.868-1.801-1.805-1.35-3.457-2.892-4.93-4.597-11.457-13.744-21.73-28.433-30.707-43.91l-1.689-2.892c-.574-.961-1.067-1.963-1.616-2.94l-3.152-5.947c-1.09-1.947-2.004-3.999-2.998-5.995l-2.925-6.035-2.69-6.14c-.89-2.052-1.827-4.08-2.603-6.18-1.616-4.169-3.33-8.297-4.703-12.555l-2.182-6.342-1.915-6.423c-1.358-4.257-2.368-8.62-3.467-12.926-.258-1.09-.573-2.165-.808-3.232l-.67-3.288-1.35-6.568c-.412-2.198-.727-4.411-1.09-6.617l-.526-3.304c-.186-1.107-.372-2.206-.477-3.32-4.514-35.596-1.89-71.734 7.717-106.304 9.65-34.555 26.016-66.87 48.162-95.098 22.035-28.297 49.51-51.899 80.809-69.415 31.329-17.384 65.76-28.465 101.35-32.615zm0 .056c-35.584 4.191-70.002 15.31-101.31 32.728-31.24 17.547-58.648 41.172-80.607 69.48-33.25 42.46-53.085 93.867-56.97 147.652-.453 4.435-.493 8.887-.63 13.363l-.098 3.328V373.881l.138 6.69.064 3.344.04 1.672.106 1.665.46 6.673.235 3.345.38 3.32.76 6.65c.104 1.106.29 2.205.468 3.312l.525 3.304c.364 2.197.679 4.403 1.083 6.6l1.35 6.553.67 3.28c.218 1.09.533 2.165.808 3.231 1.091 4.323 2.101 8.669 3.45 12.927l1.916 6.414 2.174 6.326c1.373 4.25 3.095 8.37 4.695 12.53.808 2.093 1.705 4.121 2.594 6.165l2.682 6.132 2.918 6.019c1.002 1.995 1.899 4.04 2.99 5.987l3.16 5.905c.533.978 1.034 1.972 1.615 2.933l1.69 2.892c8.956 15.448 19.204 30.11 30.634 43.829 2.909 3.32 6.465 6.213 10.699 7.562 2.115.748 4.189 1.605 6.214 2.569 2.092.942 3.904 2.409 5.26 4.258 1.186 1.93 2.06 4.034 2.587 6.237.598 2.173 1.026 4.362 1.527 6.536.443 2.173 1.059 4.307 1.842 6.382.729 2.076 2.098 3.867 3.911 5.114 1.88 1.164 3.907 2.07 6.029 2.69 2.117.687 4.275 1.196 6.465 1.842 2.145.678 4.22 1.56 6.198 2.634.985.547 1.943 1.142 2.868 1.786l2.796 1.842 5.576 3.692c1.891 1.187 3.822 2.302 5.737 3.45l2.87 1.712c.96.582 1.914 1.156 2.908 1.664l5.9 3.16 2.949 1.615 2.95 1.43 6.044 2.884c.5.235 1.002.485 1.511.711l1.543.655 3.08 1.3c2.06.865 4.104 1.762 6.173 2.586l6.27 2.335c2.094.767 4.179 1.615 6.312 2.23 4.259 1.34 8.469 2.819 12.8 3.91 17.21 4.782 34.845 7.877 52.655 9.242 17.818 1.315 35.72.996 53.48-.953 35.611-3.898 70.1-14.802 101.479-32.082 31.372-17.32 58.954-40.75 81.116-68.906 44.928-56.7 65.472-128.929 57.107-200.78-6.388-53.55-28.66-103.964-63.952-144.752l-2.182-2.536-1.09-1.26-1.148-1.22-4.59-4.848c-2.998-3.312-6.287-6.342-9.487-9.453l-4.849-4.653c-1.616-1.616-3.054-3.232-4.5-4.977-2.894-3.409-5.657-6.956-8.59-10.276-2.904-3.383-6.295-6.316-10.061-8.701-3.862-2.226-7.92-4.094-12.122-5.583-4.212-1.503-8.334-3.245-12.347-5.219-3.952-2.1-7.839-4.282-11.814-6.318-15.958-8.044-32.672-14.49-49.9-19.244-17.249-4.675-34.905-7.694-52.727-9.016-17.825-1.229-35.724-.845-53.48 1.147l-.008.008z"/>
                    <path fill="#BA12D8" d="M350.661 72.42c19.79-1.328 39.659-.855 59.362 1.414 19.675 2.395 39.078 6.65 57.948 12.709 18.844 6.183 37.04 14.19 54.328 23.905l12.8 7.538c4.307 2.424 8.752 4.621 13.124 6.956 4.416 2.265 8.635 4.894 12.614 7.861 3.888 3.078 7.503 6.487 10.804 10.188 3.362 3.651 6.545 7.44 9.875 11.108 1.654 1.837 3.356 3.628 5.107 5.373l5.22 5.34 2.586 2.674c.857.897 1.745 1.761 2.545 2.707l4.914 5.574 2.424 2.787 1.228 1.398 1.156 1.454 4.654 5.801c37.168 47.003 59.224 104.159 63.266 163.94 5.772 80.098-20.595 159.198-73.277 219.82-52.681 60.622-127.34 97.776-207.477 103.251-39.66 2.848-79.497-1.968-117.335-14.186-18.849-6.198-37.019-14.294-54.23-24.165-1.075-.614-2.166-1.203-3.233-1.834l-3.16-1.963-6.31-3.926c-2.093-1.325-4.097-2.787-6.158-4.169l-6.117-4.21c-2.047-1.37-4.18-2.609-6.384-3.707-2.198-1.107-4.517-2.004-6.748-3.103-2.252-1.048-4.415-2.28-6.464-3.684-2.07-1.426-3.862-3.22-5.285-5.292-2.845-4.128-4.614-8.814-6.772-13.241-1.033-2.234-2.261-4.372-3.669-6.39-.178-.251-.355-.501-.541-.744l-.59-.703c-.387-.474-.803-.925-1.245-1.349-.879-.863-1.81-1.673-2.787-2.424-1.956-1.486-4.04-2.803-6.158-4.104-1.05-.654-2.117-1.268-3.152-1.98-1.024-.715-2.006-1.49-2.941-2.318-1.86-1.655-3.588-3.451-5.172-5.372-1.616-1.931-3.03-3.927-4.557-5.882-1.528-1.955-3.047-3.91-4.485-5.93l-4.3-6.06-2.149-3.029-2.044-3.11-4.04-6.213c-1.358-2.076-2.579-4.233-3.88-6.342l-2.012-3.135c-.638-1.066-1.3-2.116-1.883-3.231l-3.595-6.512-1.786-3.232-1.673-3.32-3.346-6.633c-1.09-2.222-2.068-4.508-3.11-6.754l-1.544-3.377c-.517-1.131-1.035-2.254-1.479-3.41l-2.812-6.883c-.46-1.147-.954-2.286-1.39-3.45l-1.269-3.49-2.529-6.988c-.808-2.343-1.511-4.726-2.27-7.077l-1.124-3.547-.558-1.77c-.185-.597-.33-1.195-.5-1.793-5.446-19.076-8.987-38.645-10.57-58.419-3.027-39.681 1.882-79.568 14.44-117.332 12.593-37.698 32.465-72.558 58.49-102.603l2.424-2.844 2.53-2.723 5.066-5.437 2.497-2.73c.864-.89 1.761-1.737 2.642-2.61l5.317-5.195c1.738-1.761 3.613-3.393 5.455-5.041l5.552-4.928c.905-.808 1.866-1.616 2.836-2.424l2.877-2.343 5.77-4.694c15.667-12.144 32.504-22.699 50.263-31.508C272.27 85.677 311.002 75.167 350.66 72.42zm0 .057c-39.647 2.774-78.361 13.315-113.94 31.023-17.735 8.837-34.547 19.413-50.19 31.573-47.021 36.932-82.165 86.85-101.076 143.564C66.458 335.36 65.116 396.51 81.61 454.01c.161.597.315 1.195.493 1.785l.557 1.77 1.115 3.538c.76 2.36 1.463 4.726 2.271 7.07l2.53 6.971 1.26 3.49c.436 1.156.921 2.295 1.39 3.442l2.796 6.867c.452 1.156.97 2.279 1.487 3.402l1.535 3.377c1.043 2.246 2.012 4.524 3.111 6.738l3.33 6.632 1.672 3.313 1.786 3.231 3.588 6.464c.582 1.09 1.237 2.14 1.875 3.231l1.915 3.175c1.293 2.109 2.521 4.266 3.87 6.334l4.041 6.205 2.037 3.102 2.15 3.03 4.29 6.051c1.439 2.02 2.99 3.943 4.477 5.922 1.487 1.98 2.982 3.959 4.541 5.865 1.57 1.898 3.28 3.676 5.116 5.316.919.816 1.885 1.576 2.893 2.279 1.01.686 2.084 1.308 3.135 1.97 2.134 1.275 4.202 2.656 6.198 4.137.995.749 1.942 1.558 2.836 2.424.45.435.874.896 1.269 1.382l.606.719c.194.242.372.5.558.751 1.422 2.042 2.664 4.205 3.709 6.463 2.174 4.452 3.935 9.121 6.731 13.169 1.387 2.023 3.134 3.773 5.156 5.162 2.035 1.39 4.18 2.608 6.416 3.644 2.214 1.09 4.517 1.988 6.747 3.102 2.233 1.11 4.393 2.362 6.465 3.75l6.125 4.208c2.045 1.382 4.04 2.844 6.142 4.161l6.295 3.926 3.151 1.964c1.067.63 2.15 1.22 3.233 1.834 17.18 9.872 35.321 17.971 54.142 24.172 37.778 12.235 77.56 17.082 117.172 14.276 111.524-7.249 209.858-75.655 255.419-177.682 45.56-102.027 30.852-220.89-38.205-308.74l-4.646-5.744-1.156-1.446c-.396-.477-.808-.93-1.22-1.398l-2.424-2.787-4.905-5.575c-.809-.945-1.681-1.81-2.538-2.706l-2.578-2.674-5.155-5.34c-1.746-1.762-3.459-3.555-5.115-5.397-3.322-3.676-6.465-7.474-9.851-11.117-3.29-3.693-6.894-7.094-10.772-10.164-3.96-2.962-8.16-5.589-12.557-7.852-4.364-2.335-8.809-4.533-13.124-6.973l-12.792-7.553c-17.274-9.73-35.456-17.753-54.287-23.955-18.852-6.069-38.235-10.343-57.892-12.765-19.698-2.294-39.565-2.792-59.354-1.486l-.008.008z"/>
                    <path fill="#BA12D8" d="M361.538 38.892c21.925-.628 43.861.773 65.528 4.185 21.646 3.553 42.904 9.164 63.483 16.756l7.661 2.998c1.269.5 2.554.985 3.822 1.502l3.766 1.616 7.531 3.288 7.402 3.604 3.701 1.785c1.229.606 2.425 1.268 3.637 1.907l7.273 3.853c2.424 1.31 4.751 2.74 7.127 4.096 2.376 1.358 4.76 2.715 7.055 4.218l6.95 4.403c1.163.719 2.302 1.478 3.442 2.238l3.442 2.237c4.606 2.965 9.245 5.89 13.738 8.984 4.563 3.059 8.948 6.376 13.13 9.938 4.163 3.579 8.082 7.432 11.864 11.391 3.782 3.959 7.466 8.022 11.184 12.038 3.717 4.015 7.41 8.079 11.095 12.118.913 1.018 1.85 2.028 2.747 3.054l2.618 3.175 5.237 6.334c1.794 2.076 3.378 4.322 5.034 6.463l4.946 6.577c.848 1.074 1.616 2.23 2.367 3.36l2.32 3.394 4.638 6.786 4.323 6.996 2.166 3.499c.711 1.171 1.47 2.31 2.117 3.522l4.04 7.182c1.31 2.424 2.724 4.759 3.895 7.272l3.67 7.36 1.834 3.684c.581 1.236 1.115 2.496 1.68 3.748 18.196 40.052 28.278 83.31 29.665 127.277.666 21.927-.795 43.868-4.363 65.513-30.658 182.225-202.735 305.505-385.183 275.955-21.68-3.42-42.959-9.014-63.516-16.7l-7.677-2.948c-1.285-.469-2.545-1.018-3.798-1.56l-3.782-1.615-3.773-1.616c-1.253-.55-2.53-1.059-3.75-1.673l-7.41-3.587-3.71-1.785-3.628-1.939-7.272-3.87c-2.425-1.317-4.744-2.763-7.111-4.136l-3.548-2.085-1.77-1.042-1.737-1.107-6.91-4.46c-1.139-.759-2.318-1.462-3.434-2.253l-3.329-2.368-6.723-4.75c-2.206-1.616-4.437-3.232-6.715-4.71-2.28-1.479-4.615-2.925-6.926-4.411-2.31-1.487-4.582-3.03-6.771-4.694-2.204-1.649-4.274-3.47-6.19-5.445-1.897-1.995-3.675-4.1-5.326-6.302-3.329-4.363-6.335-8.952-9.697-13.25-1.68-2.151-3.482-4.204-5.398-6.148-1.923-1.947-3.935-3.797-5.972-5.655-2.036-1.858-4.129-3.595-6.084-5.534-1.944-1.945-3.789-3.987-5.528-6.116-.873-1.066-1.721-2.141-2.561-3.232l-2.425-3.304-4.848-6.617c-12.713-17.888-23.736-36.918-32.93-56.844-18.41-39.97-28.696-83.196-30.263-127.171-.685-21.932.741-43.879 4.259-65.537 3.541-21.658 9.226-42.91 16.97-63.445C106.502 128.456 226.079 42.973 361.538 38.892zm0 .057C201.933 44.002 68.221 161.277 42.433 318.83c-3.521 21.626-4.95 43.54-4.267 65.44 1.543 43.901 11.788 87.059 30.142 126.97 9.176 19.893 20.18 38.89 32.873 56.747l4.848 6.61 2.424 3.303c.808 1.091 1.681 2.157 2.554 3.232 1.724 2.118 3.555 4.146 5.487 6.075 1.931 1.923 4.04 3.676 6.069 5.518 2.028 1.842 4.04 3.692 5.988 5.656 1.931 1.958 3.747 4.027 5.438 6.196 3.386 4.323 6.4 8.887 9.697 13.258 1.654 2.174 3.432 4.251 5.325 6.22 1.9 1.958 3.95 3.762 6.134 5.398 2.173 1.615 4.436 3.183 6.74 4.67 2.302 1.486 4.654 2.883 6.933 4.418 2.278 1.536 4.525 3.103 6.73 4.727l6.708 4.734 3.354 2.375c1.115.808 2.286 1.503 3.426 2.254l6.9 4.46 1.722 1.107 1.77 1.042 3.54 2.084c2.367 1.374 4.694 2.82 7.094 4.137l7.273 3.87 3.62 1.939 3.701 1.785 7.394 3.571c1.22.614 2.497 1.123 3.75 1.672l3.766 1.616 3.765 1.616c1.26.55 2.513 1.099 3.798 1.567l7.669 2.95c20.523 7.693 41.77 13.298 63.419 16.73 87.568 14.47 177.298-6.443 249.44-58.134 72.14-51.692 120.78-129.926 135.21-217.481 3.548-21.623 4.993-43.539 4.314-65.44-1.446-43.889-11.532-87.062-29.68-127.05-.558-1.253-1.092-2.513-1.673-3.75L674 227.248l-3.652-7.36c-1.172-2.472-2.578-4.848-3.887-7.231l-3.984-7.174c-.638-1.212-1.398-2.351-2.11-3.523l-2.173-3.506-4.307-6.988-4.63-6.787-2.311-3.393c-.808-1.123-1.512-2.278-2.36-3.36l-4.93-6.569c-1.616-2.173-3.232-4.411-5.018-6.463l-5.228-6.334-2.61-3.167c-.897-1.034-1.826-2.036-2.748-3.054-3.676-4.04-7.313-8.152-11.07-12.118-3.758-3.967-7.402-8.144-11.168-12.054-3.766-3.91-7.677-7.813-11.822-11.392-4.163-3.556-8.525-6.871-13.067-9.929-4.517-3.094-9.148-6.019-13.738-9l-3.442-2.238c-1.148-.76-2.287-1.519-3.45-2.246l-6.942-4.435c-2.287-1.51-4.687-2.836-7.047-4.225-2.36-1.39-4.71-2.788-7.119-4.105l-7.273-3.853c-1.212-.639-2.424-1.31-3.636-1.915l-3.693-1.785-7.402-3.58-7.523-3.288-3.766-1.615c-1.269-.526-2.546-1.01-3.822-1.511l-7.645-3.006C469.866 52.43 448.625 46.79 426.993 43.2c-21.64-3.426-43.552-4.849-65.455-4.25z"/>
                    <path fill="#BA12D8" d="M745.29 372.742c.012 24.41-2.359 48.762-7.078 72.71-34.485 174.46-187.625 300.135-365.498 299.95-24.417-.011-48.775-2.403-72.728-7.141-23.952-4.74-47.374-11.845-69.924-21.208-91.251-37.95-163.769-110.469-201.706-201.708-9.362-22.543-16.467-45.957-21.213-69.9-9.505-48.007-9.524-97.409-.056-145.422C36.412 152.119 152.04 36.485 299.97 7.126 323.924 2.395 348.281.008 372.698 0c98.872-.05 193.705 39.214 263.595 109.134 69.89 69.92 109.098 164.758 108.982 263.608h.016zm-.056 0c-.015-24.396-2.408-48.731-7.143-72.663C708.65 152.384 593.108 36.97 445.353 7.667c-47.962-9.474-97.315-9.474-145.278 0-23.92 4.722-47.316 11.799-69.843 21.127C139.045 66.67 66.574 139.11 28.671 230.268c-9.353 22.522-16.45 45.914-21.188 69.835-9.495 47.962-9.515 97.317-.057 145.285 9.49 47.974 28.38 93.597 55.58 134.241 40.975 61.203 99.145 108.92 167.186 137.142 22.535 9.33 45.938 16.41 69.867 21.134 174.247 34.508 348.654-58.649 416.828-222.641 9.36-22.53 16.468-45.93 21.22-69.86 4.73-23.932 7.117-48.267 7.127-72.662z"/>
                </g>
                <path d="M0 70.48H1134.611V664.7180000000001H0z" transform="matrix(-1 0 0 1 1920 -233) matrix(-1 0 0 1 1438 0)"/>
                <path fill="#EA0CA0" fill-rule="nonzero" d="M791.36 166.533c-53.539-.073-105.044 20.495-143.8 57.426 79.805 84.542 78.768 216.95-2.35 300.232 38.976 38.33 91.478 59.78 146.15 59.712 115.282 0 208.737-93.434 208.737-208.689S906.674 166.533 791.36 166.533z" transform="matrix(-1 0 0 1 1920 -233) matrix(-1 0 0 1 1438 0)"/>
                <path fill="#D207E2" fill-rule="nonzero" d="M669.096 323.613c16.947 62.434.36 129.19-43.838 176.438 3.076 4.104 6.308 8.087 9.697 11.949 73.772-77.473 74.614-198.93 1.923-277.418-3.464 3.868-6.785 7.864-9.964 11.99 20.029 21.932 34.495 48.354 42.182 77.041z" transform="matrix(-1 0 0 1 1920 -233) matrix(-1 0 0 1 1438 0)"/>
                <path fill="#E00AA3" fill-rule="nonzero" d="M639.706 332.16c13.414 49.419 1.627 102.271-31.515 141.311 2.532 4.702 5.225 9.28 8.08 13.734 58.175-64.616 58.741-162.544 1.318-227.828-2.969 4.524-5.767 9.172-8.396 13.944 14.292 17.187 24.7 37.258 30.513 58.84z" transform="matrix(-1 0 0 1 1920 -233) matrix(-1 0 0 1 1438 0)"/>
                <path fill="#EF439A" fill-rule="nonzero" d="M610.3 340.644c9.345 34.197 3.522 70.761-15.984 100.365 1.95 5.747 4.137 11.376 6.562 16.886 38.364-49.808 38.665-119.117.735-169.256-2.51 5.59-4.779 11.31-6.804 17.16 6.92 10.753 12.144 22.505 15.49 34.845z" transform="matrix(-1 0 0 1 1920 -233) matrix(-1 0 0 1 1438 0)"/>
                <path fill="#ED2B91" fill-rule="nonzero" d="M583.31 383.31c.565 12.426 2.242 24.776 5.01 36.904 11.567-23.636 14.1-50.684 7.12-76.056-1.736-6.345-4.032-12.522-6.862-18.46-2.87 12.269-4.626 24.772-5.244 37.357.731 6.732.723 13.524-.024 20.254z" transform="matrix(-1 0 0 1 1920 -233) matrix(-1 0 0 1 1438 0)"/>
            </g>
        </g>
    </g>
</svg>
