<svg xmlns="http://www.w3.org/2000/svg" width="936" height="266" viewBox="0 0 936 266">
    <g fill="none" fill-rule="evenodd">
        <g>
            <g>
                <path fill="#FFF" d="M174.522 177.753c.745 7.003 3.508 13.638 7.952 19.101 6.056 7.35 15.006 11.39 25.243 11.39 10.237 0 19.102-4.04 25.18-11.39 5.412-6.523 8.298-14.856 8.298-23.99v-91.26c.064-7.46-2.115-14.768-6.254-20.976-1.302-1.944-1.228-4.5.184-6.367 4.55-5.769 7.013-12.907 6.99-20.254-.012-13.544-8.176-25.75-20.69-30.932-12.514-5.183-26.918-2.323-36.503 7.247h-.035c-6.309 6.26-9.828 14.798-9.764 23.685-.058 6.897 2.08 13.634 6.106 19.235 1.333 1.9 1.3 4.44-.085 6.304-4.57 6.448-6.997 14.17-6.94 22.072v86.754c.288 2.137.439 4.29.452 6.445 0 .99-.063 2.002-.134 2.964M382.543 61.986c-11.687-11.368-27.075-17.127-45.696-17.127-10.259 0-19.47 1.818-27.28 5.377-1.551.69-3.333.63-4.833-.163-5.069-2.604-10.701-3.919-16.4-3.827-10.215 0-19.15 4.046-25.264 11.44-5.419 6.536-8.277 14.792-8.277 23.946v91.26c0 9.148 2.83 17.418 8.292 24.005 6.02 7.343 15.034 11.382 25.214 11.382 10.181 0 19.201-4.04 25.279-11.425 5.37-6.544 8.2-14.814 8.2-23.961V113l.198-2.263c.183-2.957 2.398-4.754 5.37-4.641l.778.05c2.83.155 4.952 2.001 5.1 4.81l.12 2.044v59.886c0 9.133 2.83 17.417 8.264 23.961 6.07 7.386 15.041 11.425 25.236 11.425s19.173-4.04 25.229-11.382c5.426-6.587 8.277-14.857 8.277-24.004V141.34c-.488-4.519-.74-9.06-.757-13.604.019-4.225.271-8.446.757-12.642v-7.747c0-18.634-6.013-33.88-17.807-45.362M438.031 195.142c1.223 1.04 1.93 2.562 1.939 4.167.003.346-.037.69-.12 1.026-.315 1.953-1.707 3.561-3.595 4.153-12.31 4.11-21.224 16.674-21.224 29.917 0 16.937 13.513 31.206 29.473 31.206H482.9c24.479 0 44.239-6.53 58.72-19.434 17.518-15.74 23.75-44.166 23.75-65.573V81.632c0-9.119-2.829-17.41-8.234-23.96-6.07-7.373-15.02-11.426-25.23-11.426-5.989-.094-11.9 1.369-17.156 4.244-1.572.901-3.494.946-5.108.12-7.527-3.784-16.364-5.744-26.219-5.744-22.2 0-41.197 9.339-54.83 27.032v.056c-9.678 12.678-15.487 27.386-17.369 43.798v25.122c1.783 15.79 6.665 29.614 14.858 41.152 3.367 4.897 7.388 9.313 11.949 13.123M130.226 142.685H103.95c-2.043.005-3.915-1.142-4.839-2.964-.925-1.817-.764-3.998.418-5.66 0 0 51.32-71.098 51.285-71.063 5.434-7.683 8.193-15.967 8.193-24.605 0-10.555-4.323-19.674-12.112-25.666-6.601-5.115-14.985-7.783-24.267-7.783H35.544c-8.593-.067-16.87 3.235-23.057 9.198-6.456 6.071-10.063 14.576-9.94 23.438 0 9.465 3.743 17.89 10.556 23.621 6.112 5.228 13.895 7.952 22.44 7.952h19.853c2.043.023 3.905 1.173 4.84 2.99.934 1.817.787 4.001-.383 5.676 0 0-52 72.556-51.979 72.506-1.59 2.247-2.96 4.642-4.089 7.153l-.156.268c-2.19 4.956-3.36 10.302-3.438 15.72 0 10.435 4.323 19.504 12.197 25.602 6.686 5.15 15.013 7.875 24.146 7.875h93.692c8.372.042 16.465-3.009 22.725-8.568 5.996-5.108 9.796-12.328 10.612-20.162-.183-1.758-.275-3.524-.276-5.292v-4.011c-2.42-16.08-14.815-26.176-33.06-26.176" transform="translate(-83 -56) translate(83 56)"/>
                <path fill="#EE2B74" d="M444.519 249.248c-7.132 0-13.082-7.124-13.082-14.857 0-7.732 6.997-14.814 12.735-14.814H482.9c8.737 0 18.677-2.433 23.976-7.194 5.3-4.762 7.952-18.444 7.952-27.067v-8.072c-7.735 10.682-19.46 16.033-35.176 16.052-17.276 0-30.667-6.89-40.17-20.672-8.434-11.857-12.641-26.822-12.622-44.894 0-17.73 4.92-32.996 14.758-45.8 10.598-13.8 24.545-20.698 41.84-20.693 14.398 0 24.897 5.213 31.37 15.599 2.052-9.48 7.757-14.222 17.114-14.227 5.384 0 9.6 1.84 12.58 5.497 2.978 3.657 4.513 8.164 4.513 13.526v98.972c0 19.943-6.113 42.397-18.267 53.349-11.603 10.272-27.592 15.295-47.868 15.295h-38.381zm70.323-121.044c0-9.303-2.122-17.312-6.416-23.905-4.896-7.697-11.822-11.623-20.701-11.623-8.384 0-15.077 3.692-19.958 11.156-4.436 6.6-6.65 14.283-6.65 22.95 0 9.295 2.037 17.176 6.176 23.67 4.768 7.547 11.579 11.32 20.432 11.32 8.879 0 15.805-3.537 20.7-10.612 4.28-6.133 6.417-13.774 6.417-22.956z" transform="translate(-83 -56) translate(83 56)"/>
                <path fill="#F47B20" d="M271.192 172.893v-91.26c0-5.391 1.507-9.9 4.521-13.527 3-3.658 7.195-5.497 12.622-5.497 8.872 0 14.107 4.153 15.72 12.352 6.778-9.119 17.722-13.724 32.799-13.724 14.286 0 25.71 4.145 34.27 12.437 8.547 8.354 12.862 19.582 12.862 33.674v65.545c0 5.412-1.542 9.904-4.535 13.576-2.992 3.671-7.209 5.447-12.607 5.447s-9.558-1.797-12.586-5.447c-3.028-3.65-4.514-8.192-4.514-13.576v-59.9c0-7.074-1.98-12.797-5.822-16.978-3.842-4.181-9.431-6.325-16.577-6.325-6.827 0-12.21 2.207-16.095 6.586-3.884 4.38-5.844 9.905-5.844 16.71v59.9c0 5.384-1.471 9.904-4.535 13.576-3.063 3.671-7.195 5.447-12.572 5.447-5.377 0-9.607-1.797-12.586-5.447-2.978-3.65-4.52-8.192-4.52-13.576" transform="translate(-83 -56) translate(83 56)"/>
                <path fill="#49A942" d="M190.582 172.893v-91.26c0-5.391 1.478-9.905 4.514-13.527 3.035-3.622 7.188-5.497 12.621-5.497 5.433 0 9.565 1.846 12.558 5.497 2.992 3.65 4.535 8.136 4.535 13.526v91.26c0 5.378-1.512 9.903-4.535 13.577-2.993 3.65-7.202 5.454-12.558 5.454s-9.615-1.804-12.621-5.454c-3.007-3.65-4.514-8.2-4.514-13.576m.898-138.879c.028-8.143 5.8-15.134 13.792-16.701 7.99-1.568 15.977 2.725 19.078 10.254 3.102 7.53.456 16.2-6.321 20.716-6.777 4.515-15.8 3.618-21.554-2.143-3.271-3.177-5.08-7.567-4.995-12.126" transform="translate(-83 -56) translate(83 56)"/>
                <path fill="#009DDC" d="M61.275 159.048h68.951c11.426 0 17.136 5.306 17.136 15.74.062 4.342-1.832 8.48-5.158 11.27-3.287 2.926-7.541 4.531-11.942 4.507h-93.72c-5.57 0-10.287-1.502-14.15-4.506-3.891-3.021-5.802-7.23-5.802-12.607.061-3.203.784-6.358 2.123-9.268.75-1.572 1.625-3.082 2.618-4.513L97.909 52.726H35.544c-4.712 0-8.688-1.33-11.857-4.068-3.17-2.738-4.748-6.402-4.748-11.128-.121-4.381 1.662-8.6 4.889-11.567 3.115-3.077 7.337-4.773 11.716-4.704h87.084c5.66 0 10.492 1.478 14.27 4.414 3.778 2.936 5.66 7.16 5.66 12.734 0 5.242-1.712 10.265-5.158 15.19L61.275 159.047z" transform="translate(-83 -56) translate(83 56)"/>
                <path fill="#FFF" fill-rule="nonzero" d="M625.472 107.242c-.076-1.947.724-3.826 2.179-5.122 1.569-1.268 3.53-1.95 5.546-1.931 2.236 0 3.941.643 5.115 1.93 1.415 1.345 2.123 3.276 2.123 5.795v2.936h.332c5.66-7.33 13.525-10.994 23.595-10.994 10.291.335 18.489 5.483 24.592 15.444 4.198-5.759 8.591-9.768 13.18-12.027 9.94-4.82 21.59-4.57 31.314.672 4.67 2.834 8.561 6.788 11.32 11.503 2.744 4.98 4.117 10.829 4.117 17.545v53.13c0 2.357-.729 4.15-2.186 5.376-1.534 1.333-3.508 2.051-5.54 2.016-1.9 0-3.732-.72-5.122-2.016-1.518-1.365-2.349-3.337-2.264-5.377v-52.018c.106-4.017-.79-7.996-2.603-11.581-1.385-3.074-3.742-5.606-6.707-7.21-2.994-1.599-6.341-2.421-9.735-2.39-5.66 0-10.473 1.65-14.44 4.952-3.806 3.471-5.71 8.871-5.71 16.2v52.04c.112 1.978-.691 3.898-2.179 5.207-1.598 1.202-3.546 1.85-5.546 1.846-1.867-.007-3.674-.66-5.115-1.846-1.514-1.174-2.271-2.91-2.271-5.207v-51.34c0-7.328-1.847-12.842-5.54-16.54-3.693-3.522-8.336-5.284-13.93-5.284-3.357.095-6.665.834-9.742 2.179-2.977 1.403-5.448 3.69-7.075 6.55-1.854 2.802-2.778 6.575-2.773 11.32v53.13c0 2.41-.755 4.201-2.264 5.376-1.445 1.318-3.337 2.039-5.292 2.017-1.921-.03-3.769-.744-5.207-2.017-1.454-1.404-2.246-3.357-2.18-5.377l.008-78.887zM784.125 181.106v40.608c0 2.971-.672 5.214-2.017 6.728-1.349 1.556-3.31 2.447-5.37 2.44-2.058-.047-3.992-1-5.284-2.603-1.514-1.457-2.271-3.528-2.271-6.211V107.914c0-2.519.707-4.504 2.122-5.957 1.352-1.368 3.199-2.134 5.122-2.123 2.05-.022 4.03.737 5.54 2.123 1.448 1.288 2.174 3.163 2.179 5.624v4.698h.34c4.08-8.112 11.718-12.253 22.915-12.423 5.658-.113 11.273 1.004 16.456 3.276 4.972 2.215 9.388 5.512 12.926 9.65 3.72 4.25 6.521 9.223 8.228 14.608 2.007 6.034 2.999 12.36 2.936 18.719 0 9.008-1.595 17.038-4.783 24.089-3.302 7.272-7.89 12.953-13.768 17.042-5.935 4.197-13.05 6.401-20.318 6.296-10.188 0-18.386-4.14-24.593-12.423l-.36-.007zm48.858-34.374c.046-5.531-.834-11.031-2.603-16.272-1.5-4.754-4.22-9.032-7.889-12.408-3.589-3.24-8.07-4.945-13.442-5.115-6.325 0-11.416 1.594-15.274 4.782-3.945 3.301-6.86 7.664-8.398 12.571-1.765 5.186-2.699 10.618-2.766 16.095 0 10.456 2.294 18.71 6.883 24.76 4.642 6.264 10.6 9.478 17.879 9.643.432-.165.884-.277 1.344-.332 4.784-.265 9.364-2.024 13.095-5.03 3.524-2.83 6.266-6.77 8.228-11.822 1.778-4.594 2.76-10.215 2.943-16.865v-.007zM865.471 96.75c.609-5.225 2.45-10.232 5.37-14.608 3.04-4.233 7.115-7.614 11.836-9.82 5.31-2.349 11.067-3.522 16.873-3.438 11.1.372 21.138 6.689 26.276 16.533 2.413 4.788 3.65 10.082 3.609 15.444 0 5.036-1.239 9.995-3.609 14.439-2.584 4.608-6.24 8.525-10.661 11.418 6.83 2.018 11.977 5.74 15.444 11.163 1.721 2.612 3.024 5.476 3.863 8.49.915 3.322 1.367 6.755 1.344 10.201-.056 2.922-.292 5.837-.707 8.73-1.088 5.022-3.203 9.765-6.212 13.93-3.483 4.5-8.042 8.052-13.258 10.328-5.707 2.632-12.452 3.948-20.234 3.948-5.316.082-10.58-1.038-15.402-3.276-4.464-2.112-8.47-5.078-11.794-8.73-3.199-3.448-5.504-7.629-6.714-12.175-.057-.332-.1-.63-.127-.877-.029-.247-.1-.658-.213-1.217-.056-.445-.092-.856-.12-1.216-.027-.36-.098-.713-.212-1.055.154-2.06.912-4.028 2.179-5.66 1.285-1.544 3.19-2.436 5.2-2.433 3.57 0 6.028 2.24 7.372 6.721 3.24 10.07 10.171 15.804 20.793 17.205 4.009-.18 7.93-1.24 11.482-3.106 3.443-1.833 6.38-4.486 8.554-7.725 2.145-3.15 3.337-6.851 3.431-10.661 0-16.39-6.89-24.586-20.673-24.591-6.254 0-9.63-2.014-10.13-6.042 0-2.186.707-3.664 2.178-4.45 2.651-1.29 5.44-2.278 8.313-2.942 4.811-1.283 8.532-3.689 11.164-7.216 2.406-3.358 3.608-8.339 3.608-14.942-.197-3.171-1.145-6.25-2.766-8.984-1.472-2.53-3.57-4.64-6.091-6.127-2.546-1.434-5.427-2.167-8.349-2.122-4.402-.12-8.69 1.406-12.027 4.28-3.193 2.83-5.04 7.362-5.54 13.597.138 4.071-3.007 7.504-7.074 7.725-2.095-.183-3.986-1.331-5.115-3.105-1.224-1.804-1.861-4.386-1.861-7.634z" transform="translate(-83 -56) translate(83 56)"/>
            </g>
        </g>
    </g>
</svg>
