<svg xmlns="http://www.w3.org/2000/svg" width="46" height="46" viewBox="0 0 46 46">
    <defs>
        <filter id="s9w006ks2a" width="120%" height="120%" x="-10%" y="-10%" filterUnits="objectBoundingBox">
            <feOffset in="SourceAlpha" result="shadowOffsetOuter1"/>
            <feGaussianBlur in="shadowOffsetOuter1" result="shadowBlurOuter1" stdDeviation="1"/>
            <feColorMatrix in="shadowBlurOuter1" result="shadowMatrixOuter1" values="0 0 0 0 0 0 0 0 0 0 0 0 0 0 0 0 0 0 0.261445586 0"/>
            <feMerge>
                <feMergeNode in="shadowMatrixOuter1"/>
                <feMergeNode in="SourceGraphic"/>
            </feMerge>
        </filter>
    </defs>
    <g fill="none" fill-rule="evenodd">
        <g>
            <g>
                <g filter="url(#s9w006ks2a)" transform="translate(-13 -10) translate(13 10) translate(3 3)">
                    <path fill="#FFF" d="M19.966.878c-7.721 0-14.682 4.65-17.637 11.783-2.955 7.133-1.322 15.344 4.137 20.803 5.46 5.46 13.67 7.093 20.803 4.139 7.133-2.955 11.784-9.915 11.784-17.636 0-10.542-8.545-19.089-19.087-19.09zm.167 21.6c-1.044 0-1.986-.63-2.385-1.595-.4-.965-.179-2.075.56-2.814.739-.738 1.85-.958 2.814-.559.965.4 1.593 1.342 1.593 2.387 0 1.425-1.156 2.58-2.582 2.58z"/>
                    <path fill="#49A942" fill-rule="nonzero" d="M15.522 3.55l-.073.02 3.782 13.745c.707-.248 1.486-.194 2.153.148.667.343 1.164.945 1.375 1.664l13.607-3.745C33.873 6.362 24.544 1.066 15.522 3.55z"/>
                    <path fill="#009DDC" fill-rule="nonzero" d="M3.663 24.373l13.82-3.806c-.37-1.45.497-2.928 1.943-3.315L15.644 3.518c-.04.01-.082.02-.119.032C6.504 6.03 1.195 15.348 3.663 24.373z"/>
                    <path fill="#F47B20" fill-rule="nonzero" d="M36.372 15.4l-.033-.11-13.604 3.746c.245.74.163 1.55-.226 2.225s-1.048 1.153-1.81 1.312l3.768 13.693.058-.016c9.028-2.486 14.332-11.82 11.847-20.85z"/>
                    <path fill="#EE2B74" fill-rule="nonzero" d="M20.696 22.573c-1.436.3-2.852-.586-3.211-2.008L3.665 24.37c0 .011 0 .022.009.031C6.152 33.41 15.45 38.717 24.468 36.268l-3.772-13.695z"/>
                    <path fill="#FFF" d="M9.045 21.427c.119-.007.228-.066.3-.161.07-.095.096-.217.069-.332-.543-2.448.177-5.004 1.917-6.809.02-.032.016-.074-.01-.102-.027-.028-.068-.035-.102-.017-2.088 1.698-3.104 4.386-2.66 7.04.043.232.251.395.486.381z"/>
                    <path fill="#FFF" d="M7.646 21.506c.1-.005.194-.054.256-.134.061-.079.086-.182.066-.28-.082-.412-.134-.83-.157-1.249-.129-2.4.73-4.75 2.378-6.5.024-.034.02-.08-.008-.111-.03-.03-.075-.036-.11-.014-2.008 1.781-3.094 4.38-2.951 7.06.015.294.046.585.09.872.034.214.223.368.44.357l-.004-.001zM31.103 19.127c.202-.008.379.135.412.334.442 2.679-.6 5.387-2.722 7.08-.034.018-.076.011-.102-.017-.026-.028-.03-.07-.01-.102 1.755-1.785 2.502-4.329 1.99-6.779-.024-.121.006-.247.082-.344.077-.097.192-.156.316-.161l.034-.01z"/>
                    <path fill="#FFF" d="M32.471 19.069c-.108.005-.209.056-.276.14-.067.085-.094.195-.074.301.075.403.121.812.14 1.221.107 2.466-.826 4.864-2.571 6.609-.031.03-.033.078-.004.11.028.032.076.036.11.009 2.113-1.76 3.285-4.406 3.166-7.155-.013-.302-.042-.603-.085-.902-.03-.198-.204-.341-.404-.333h-.002z"/>
                    <path fill="#000" fill-rule="nonzero" d="M20.133 13.376c-3.6.003-6.516 2.924-6.514 6.525.002 3.6 2.922 6.517 6.522 6.516 3.6-.001 6.518-2.92 6.518-6.52 0-1.73-.687-3.39-1.911-4.613-1.224-1.224-2.884-1.91-4.615-1.908zm0 9.101c-1.044 0-1.986-.63-2.385-1.594-.4-.965-.179-2.075.56-2.814.739-.738 1.85-.958 2.814-.559.965.4 1.593 1.342 1.593 2.387 0 1.425-1.156 2.58-2.582 2.58z" opacity=".15"/>
                    <path fill="#FFF" fill-rule="nonzero" d="M20.133 14.852c-2.786 0-5.044 2.259-5.044 5.045s2.258 5.044 5.044 5.044c2.786 0 5.045-2.258 5.045-5.044 0-2.786-2.259-5.045-5.045-5.045zm0 7.625c-1.044 0-1.986-.63-2.385-1.594-.4-.965-.179-2.075.56-2.814.739-.738 1.85-.958 2.814-.559.965.4 1.593 1.342 1.593 2.387 0 1.425-1.156 2.58-2.582 2.58z"/>
                </g>
            </g>
        </g>
    </g>
</svg>
